Coordinates
version=1
nRows=11
nColumns=40
inDegrees=yes

Units are S.I. units (second, meters, Newtons, ...)
Angles are in degrees.

endheader
time	pelvis_tilt	pelvis_list	pelvis_rotation	pelvis_tx	pelvis_ty	pelvis_tz	hip_flexion_r	hip_adduction_r	hip_rotation_r	knee_angle_r	knee_angle_r_beta	ankle_angle_r	subtalar_angle_r	mtp_angle_r	hip_flexion_l	hip_adduction_l	hip_rotation_l	knee_angle_l	knee_angle_l_beta	ankle_angle_l	subtalar_angle_l	mtp_angle_l	lumbar_extension	lumbar_bending	lumbar_rotation	arm_flex_r	arm_add_r	arm_rot_r	elbow_flex_r	pro_sup_r	wrist_flex_r	wrist_dev_r	arm_flex_l	arm_add_l	arm_rot_l	elbow_flex_l	pro_sup_l	wrist_flex_l	wrist_dev_l
     26.30750000	     -3.04560954	     -4.64109398	      0.47618952	      1.01065783	      0.91825433	      0.46046297	     22.83576496	      0.80113843	    -14.39379758	     22.96495074	     22.96495074	      4.91776219	     -6.90938871	     -4.23294160	      8.15530767	    -10.95909687	     -4.40054280	     47.47940866	     47.47940866	     10.20524180	    -17.15840125	     -7.52831922	    -11.68535910	      6.57259716	      2.42535863	     -6.65281450	    -13.35144595	    -11.91221357	     27.46743655	     46.00324578	      0.00000000	      0.00000000	     10.70648039	    -12.40162267	     -4.52069129	     76.68350801	     47.37977310	      0.00000000	      0.00000000
     26.31914286	     -3.10062143	     -4.81070635	      0.72246721	      1.00994811	      0.91942848	      0.46263420	     22.04008335	      1.05814294	    -15.01019421	     22.41681790	     22.41681790	      5.32835614	     -6.17377667	     -4.77640347	     10.98943653	    -11.40014503	     -3.35209947	     52.28581151	     52.28581151	     10.40052423	    -17.31101575	     -1.51742026	    -11.75085830	      6.81769572	      3.05417224	     -4.93288325	    -13.67327856	    -11.62837556	     27.65136142	     46.02635522	      0.00000000	      0.00000000	     10.17228750	    -11.46110678	     -3.96008897	     73.51832212	     47.34028320	      0.00000000	      0.00000000
     26.33078571	     -3.17659849	     -5.09846114	      1.00731711	      1.00901837	      0.92042581	      0.46491195	     21.26246524	      1.48259863	    -15.58837365	     21.81421169	     21.81421169	      5.74151513	     -5.61297106	     -4.94056006	     13.71557179	    -12.07691527	     -2.55511110	     56.29976982	     56.29976982	      8.81677472	    -18.02081159	     -0.75507956	    -11.87227668	      7.13427983	      3.28264895	     -3.04630446	    -14.00648840	    -11.62348588	     28.40400677	     46.01421858	      0.00000000	      0.00000000	      8.83327900	    -10.92908252	     -3.53070711	     72.03319562	     47.28224748	      0.00000000	      0.00000000
     26.34242857	     -3.30767313	     -5.39542909	      1.30767775	      1.00784126	      0.92134543	      0.46718296	     20.53154261	      1.90950384	    -16.27286452	     21.14952294	     21.14952294	      6.06391953	     -4.89697002	     -5.11981559	     16.55607760	    -12.69540874	     -1.72689213	     59.96040944	     59.96040944	      7.79606735	    -18.43991126	      0.54160189	    -11.91313137	      7.42917322	      3.37046625	     -0.96217590	    -14.34005529	    -11.56830797	     29.17989619	     45.99881364	      0.00000000	      0.00000000	      7.59457717	    -10.44557348	     -3.12678729	     69.92845697	     47.21641381	      0.00000000	      0.00000000
     26.35407143	     -3.43398565	     -5.43008166	      1.61089734	      1.00649902	      0.92244960	      0.46908177	     19.76206015	      1.99606242	    -17.11707213	     20.45036820	     20.45036820	      6.32493409	     -3.68475086	     -5.71556523	     19.55238728	    -12.70711957	     -0.71316384	     63.54838215	     63.54838215	      9.64287653	    -18.15790114	      8.70922284	    -11.87913546	      7.47956597	      3.92581971	      1.02022838	    -14.79045028	    -10.73092097	     29.27616261	     45.97664125	      0.00000000	      0.00000000	      7.90329811	     -9.46824059	     -2.81706809	     64.05959200	     47.13769776	      0.00000000	      0.00000000
     26.36571429	     -3.57744221	     -5.70241112	      1.93280319	      1.00508546	      0.92331226	      0.47130507	     19.03424224	      2.45862583	    -17.65997496	     19.70091829	     19.70091829	      6.54803192	     -3.15014421	     -5.73357421	     22.30573881	    -13.20547435	     -0.01765063	     66.09579698	     66.09579698	      9.07562866	    -18.38499970	      9.12687416	    -11.96057969	      7.67004272	      3.96444281	      3.18447329	    -15.09538766	    -10.68226804	     30.24950103	     45.95451807	      0.00000000	      0.00000000	      6.51836971	     -9.19452988	     -2.40567893	     62.23408538	     47.07351238	      0.00000000	      0.00000000
     26.37735714	     -3.66170696	     -5.80804654	      2.22431211	      1.00367968	      0.92434793	      0.47326341	     18.22917888	      2.70874584	    -18.30093912	     18.96197613	     18.96197613	      6.79381752	     -2.24529394	     -5.95912985	     24.92449837	    -13.39435661	      0.58606177	     68.15526476	     68.15526476	      9.55288491	    -18.44055537	     11.46905431	    -12.00101017	      7.75153636	      4.29163743	      5.37948691	    -15.55742879	     -9.89869362	     30.67855709	     45.91822314	      0.00000000	      0.00000000	      6.37120304	     -8.51760096	     -2.11443406	     57.38521053	     47.00192634	      0.00000000	      0.00000000
     26.38900000	     -3.71319983	     -5.94622551	      2.50830491	      1.00230606	      0.92542112	      0.47525636	     17.37023533	      3.07254117	    -18.71935949	     18.14292003	     18.14292003	      6.98457214	     -1.72558701	     -5.93380834	     27.32051047	    -13.65027551	      1.03723769	     69.46295325	     69.46295325	      9.59247953	    -18.49590489	     11.87148332	    -12.18076569	      7.80582875	      4.22245857	      7.76064468	    -15.81603605	     -9.60722737	     31.73006455	     45.88158590	      0.00000000	      0.00000000	      5.25201714	     -8.31348757	     -1.78735906	     54.63776244	     46.93773728	      0.00000000	      0.00000000
     26.40064286	     -3.87365227	     -6.12237052	      2.77985034	      1.00090553	      0.92622035	      0.47724620	     16.64847047	      3.48651980	    -19.12107689	     17.33873311	     17.33873311	      7.17404546	     -1.26241345	     -5.89451834	     29.74675309	    -13.87952223	      1.48696521	     70.21625875	     70.21625875	      9.68364597	    -18.51234045	     11.94077187	    -12.17530289	      7.86946876	      4.27219522	      9.98690757	    -16.09911528	     -9.42464813	     32.70066488	     45.85105909	      0.00000000	      0.00000000	      4.09494272	     -8.07628120	     -1.50692658	     52.32711185	     46.87837191	      0.00000000	      0.00000000
     26.41228571	     -3.87651683	     -6.07058348	      3.01765144	      0.99958458	      0.92735671	      0.47888426	     15.77354480	      3.62004863	    -19.50273736	     16.60918690	     16.60918690	      7.36456073	     -0.50409655	     -6.00530408	     31.72132788	    -13.83286765	      1.66634831	     70.26611177	     70.26611177	     10.01281868	    -18.49228096	     12.49144006	    -12.29282265	      7.72855282	      4.71199756	     12.26620668	    -16.67248204	     -8.15505608	     33.29549064	     45.77890249	      0.00000000	      0.00000000	      4.33457593	     -7.43212419	     -1.40425709	     46.47845079	     46.81963631	      0.00000000	      0.00000000
     26.42392857	     -3.93795323	     -6.11799177	      3.26050368	      0.99834026	      0.92831270	      0.48054344	     14.91535686	      3.93364014	    -19.70776374	     15.75158020	     15.75158020	      7.51783187	     -0.14716510	     -5.88683650	     33.58284714	    -13.86381582	      1.83509241	     69.69066246	     69.69066246	     10.15100729	    -18.44111652	     12.46746160	    -12.40977813	      7.66300180	      4.56127554	     14.65584460	    -16.81602081	     -7.96703657	     34.69124100	     45.73233398	      0.00000000	      0.00000000	      2.96663839	     -7.39756730	     -1.21024055	     44.42875750	     46.76793474	      0.00000000	      0.00000000
